<svg width="12" height="15" viewBox="0 0 12 15" fill="none" xmlns="http://www.w3.org/2000/svg">
<path d="M5.97656 0.0507812C7.40234 0.0507812 8.63281 0.5 9.66797 1.39844C10.7227 2.29688 11.25 3.45898 11.25 4.88477C11.25 5.58789 11.1523 6.27148 10.957 6.93555C10.7812 7.59961 10.5176 8.21484 10.166 8.78125C9.81445 9.34766 9.33594 9.79688 8.73047 10.1289C8.14453 10.4609 7.48047 10.627 6.73828 10.627C6.34766 10.627 5.95703 10.5391 5.56641 10.3633C5.17578 10.168 4.89258 9.9043 4.7168 9.57227C4.6582 9.80664 4.57031 10.1387 4.45312 10.5684C4.35547 10.998 4.28711 11.2812 4.24805 11.418C4.22852 11.5352 4.16992 11.7402 4.07227 12.0332C3.99414 12.3262 3.91602 12.541 3.83789 12.6777C3.7793 12.7949 3.68164 12.9707 3.54492 13.2051C3.42773 13.4395 3.29102 13.6641 3.13477 13.8789C2.99805 14.0938 2.82227 14.3477 2.60742 14.6406C2.54883 14.6797 2.50977 14.6992 2.49023 14.6992C2.49023 14.6992 2.46094 14.6699 2.40234 14.6113C2.32422 13.6738 2.28516 13.1172 2.28516 12.9414C2.28516 12.4141 2.34375 11.8184 2.46094 11.1543C2.59766 10.4707 2.79297 9.62109 3.04688 8.60547C3.32031 7.58984 3.47656 6.99414 3.51562 6.81836C3.32031 6.44727 3.22266 5.94922 3.22266 5.32422C3.22266 4.38672 3.58398 3.76172 4.30664 3.44922C4.89258 3.19531 5.36133 3.2832 5.71289 3.71289C5.88867 3.94727 5.97656 4.24023 5.97656 4.5918C5.97656 4.96289 5.84961 5.51953 5.5957 6.26172C5.3418 6.98438 5.21484 7.53125 5.21484 7.90234C5.21484 8.27344 5.3418 8.58594 5.5957 8.83984C5.86914 9.07422 6.19141 9.19141 6.5625 9.19141C7.03125 9.19141 7.45117 9.03516 7.82227 8.72266C8.19336 8.41016 8.4668 8.00977 8.64258 7.52148C8.83789 7.0332 8.97461 6.55469 9.05273 6.08594C9.15039 5.59766 9.19922 5.13867 9.19922 4.70898C9.19922 3.69336 8.87695 2.90234 8.23242 2.33594C7.60742 1.76953 6.77734 1.48633 5.74219 1.48633C4.57031 1.48633 3.59375 1.86719 2.8125 2.62891C2.03125 3.39062 1.64062 4.35742 1.64062 5.5293C1.64062 5.97852 1.74805 6.41797 1.96289 6.84766C2.19727 7.27734 2.31445 7.50195 2.31445 7.52148C2.31445 7.67773 2.26562 7.89258 2.16797 8.16602C2.08984 8.41992 1.99219 8.54688 1.875 8.54688C1.46484 8.54688 1.04492 8.24414 0.615234 7.63867C0.205078 7.0332 0 6.26172 0 5.32422C0 3.76172 0.595703 2.49219 1.78711 1.51562C2.99805 0.539063 4.39453 0.0507812 5.97656 0.0507812Z" fill="#6A6B6C"/>
</svg>
