<svg width="50" height="100" viewBox="0 0 50 100" fill="none" xmlns="http://www.w3.org/2000/svg">
<circle cx="25" cy="95" r="5" fill="#E6FAFF"/>
<rect x="24" y="75" width="2" height="15" fill="#E6FAFF"/>
<circle cx="25" cy="50" r="25" fill="#25D3FA"/>
<path d="M25 51.85C24.87 51.85 24.74 51.82 24.63 51.75C24.27 51.54 24.15 51.08 24.35 50.73L25.2 49.25H24.36C23.86 49.25 23.45 49.03 23.23 48.66C23.01 48.28 23.03 47.82 23.28 47.38L24.35 45.52C24.56 45.16 25.02 45.04 25.37 45.24C25.73 45.45 25.85 45.91 25.65 46.26L24.8 47.75H25.64C26.14 47.75 26.55 47.97 26.77 48.34C26.99 48.72 26.97 49.18 26.72 49.62L25.65 51.48C25.51 51.72 25.26 51.85 25 51.85Z" fill="white"/>
<path d="M27.77 57.75H22.26C21.82 57.75 21.26 57.7 20.89 57.32C20.53 56.95 20.54 56.49 20.55 56.18V55.29C18.03 53.61 16.37 50.69 16.37 47.91C16.37 45.28 17.55 42.82 19.6 41.17C21.65 39.52 24.34 38.9 26.97 39.48C29.47 40.03 31.63 41.7 32.75 43.95C34.92 48.32 32.83 53.05 29.49 55.3V56.05C29.5 56.34 29.51 56.87 29.1 57.29C28.79 57.59 28.35 57.75 27.77 57.75ZM22.04 56.24C22.09 56.24 22.16 56.25 22.25 56.25H27.77C27.87 56.25 27.94 56.24 27.98 56.23C27.98 56.2 27.98 56.16 27.98 56.13V54.87C27.98 54.61 28.12 54.36 28.34 54.23C31.3 52.44 33.26 48.35 31.39 44.6C30.47 42.75 28.69 41.38 26.63 40.93C24.45 40.45 22.22 40.96 20.52 42.33C18.82 43.7 17.85 45.73 17.85 47.91C17.85 50.69 19.77 53.09 21.67 54.24C21.9 54.38 22.03 54.62 22.03 54.88V56.23C22.04 56.23 22.04 56.23 22.04 56.24Z" fill="white"/>
<path d="M28.5 60.7499C28.43 60.7499 28.36 60.7399 28.29 60.7199C26.13 60.0999 23.86 60.0999 21.7 60.7199C21.3 60.8299 20.89 60.5999 20.77 60.1999C20.65 59.7999 20.89 59.3899 21.29 59.2699C23.71 58.5799 26.28 58.5799 28.7 59.2699C29.1 59.3799 29.33 59.7999 29.22 60.1999C29.13 60.5399 28.83 60.7499 28.5 60.7499Z" fill="white"/>
<circle cx="5" cy="5" r="5" transform="matrix(1 0 0 -1 20 10)" fill="#E6FAFF"/>
<rect width="2" height="15" transform="matrix(1 0 0 -1 24 25)" fill="#E6FAFF"/>
</svg>
