<svg width="13" height="15" viewBox="0 0 13 15" fill="none" xmlns="http://www.w3.org/2000/svg">
<path d="M7.4375 9.0625H4.8125C3.44531 9.09896 2.3151 9.57292 1.42188 10.4844C0.510417 11.3776 0.0364583 12.5078 0 13.875C0 14.1302 0.0820312 14.3398 0.246094 14.5039C0.410156 14.668 0.619792 14.75 0.875 14.75H11.375C11.6302 14.75 11.8398 14.668 12.0039 14.5039C12.168 14.3398 12.25 14.1302 12.25 13.875C12.2135 12.5078 11.7396 11.3776 10.8281 10.4844C9.9349 9.57292 8.80469 9.09896 7.4375 9.0625ZM1.33984 13.4375C1.46745 12.5625 1.85026 11.8333 2.48828 11.25C3.1263 10.6849 3.90104 10.3932 4.8125 10.375H7.4375C8.34896 10.3932 9.1237 10.6849 9.76172 11.25C10.3997 11.8333 10.7826 12.5625 10.9102 13.4375H1.33984ZM6.125 7.75C7.10938 7.73177 7.9388 7.39453 8.61328 6.73828C9.26953 6.0638 9.60677 5.23438 9.625 4.25C9.60677 3.26562 9.26953 2.4362 8.61328 1.76172C7.9388 1.10547 7.10938 0.768229 6.125 0.75C5.14062 0.768229 4.3112 1.10547 3.63672 1.76172C2.98047 2.4362 2.64323 3.26562 2.625 4.25C2.64323 5.23438 2.98047 6.0638 3.63672 6.73828C4.3112 7.39453 5.14062 7.73177 6.125 7.75ZM6.125 2.0625C6.74479 2.08073 7.26432 2.29036 7.68359 2.69141C8.08464 3.11068 8.29427 3.63021 8.3125 4.25C8.29427 4.86979 8.08464 5.38932 7.68359 5.80859C7.26432 6.20964 6.74479 6.41927 6.125 6.4375C5.50521 6.41927 4.98568 6.20964 4.56641 5.80859C4.16536 5.38932 3.95573 4.86979 3.9375 4.25C3.95573 3.63021 4.16536 3.11068 4.56641 2.69141C4.98568 2.29036 5.50521 2.08073 6.125 2.0625Z" fill="#757589"/>
</svg>
